<!-- icon666.com - MILLIONS vector ICONS FREE --><svg id="Layer_1" enable-background="new 0 0 512 512" viewBox="0 0 512 512" xmlns="http://www.w3.org/2000/svg"><path d="m480.462 365.301c13.198-30.092 20.538-63.337 20.538-98.301 0-135.31-109.69-245-245-245s-245 109.69-245 245c0 110.456 73.1 203.826 173.558 234.405z" fill="#404051"></path><path d="m38.938 294.712c-1.536.542-3.27.529-4.887-.165-1.399-.602-13.764-6.239-17.115-18.832-2.235-8.396.16-17.346 7.118-26.603 12.127-16.134 8.825-29.558 5.633-42.54-3.599-14.634-7.678-31.22 15.572-44.038 3.263-1.803 7.371-.612 9.171 2.653s.613 7.371-2.653 9.171c-14.185 7.82-12.445 14.894-8.979 28.989 3.386 13.769 8.023 32.624-7.951 53.877-4.32 5.749-5.962 10.78-4.879 14.956 1.673 6.45 9.377 9.945 9.455 9.979 3.391 1.509 4.948 5.481 3.46 8.882-.783 1.787-2.242 3.07-3.945 3.671z" fill="#fbcc68"></path><path d="m38.938 294.711c1.703-.6 3.162-1.883 3.944-3.671 1.488-3.4-.07-7.373-3.46-8.881-.078-.035-7.782-3.529-9.455-9.979-1.083-4.176.559-9.207 4.879-14.956 8.76-11.654 11.315-22.584 11.284-32.353-5.727 7.426-10.98 4.006-13.507 1.45-.234 7.096-2.408 14.594-8.57 22.792-6.958 9.257-9.352 18.207-7.118 26.603 3.352 12.593 15.717 18.23 17.115 18.832 1.618.693 3.353.705 4.888.163z" fill="#efaa42"></path><path d="m386.693 474.251c41.544-26.253 74.642-64.647 94.317-110.202-1.245-5.207-3.302-9.824-5.255-13.409-2.529-4.642-2.098-10.375 1.236-14.478 20.259-24.935 4.041-48.476-4.643-58.115-2.709-3.007-3.907-7.072-3.241-11.064 5.055-30.312-11.434-43.746-21.989-49.126-4.584-2.337-7.249-7.222-7.012-12.363 1.187-25.724-17.256-31.854-27.829-33.261-4.329-.576-8.047-3.266-10.046-7.149-9.888-19.206-26.367-18.377-35.634-16.019-1.408 5.022-3.533 10.834-6.751 16.878l-.434.816.827.413c28.807 14.366 52.149 37.402 69.377 68.47 19.311 34.824 34.187 93.478-4.609 175.148-9.728 20.478-22.533 41.661-38.314 63.461z" fill="#fbcc68"></path><path d="m462.763 398.441c-19.652 3.154-26.098-9.205-26.098-9.205-.907.231-1.8.446-2.683.65-2.606 6.793-5.58 13.759-8.975 20.904-9.727 20.478-22.532 41.66-38.313 63.461 30.606-19.342 56.62-45.28 76.069-75.81z" fill="#efaa42"></path><path d="m432.1 234.608c-20.439-36.858-46.839-57.578-70.533-69.226-5.568 10.449-14.385 21.527-28.354 30.484-.721.462-1.175 1.218-1.247 2.075-.072.867.257 1.7.903 2.285 4.016 3.637 16.947 12.083 50.216 11.972.544-.002.842.364.939.706.046.162.151.717-.417 1.066-5.157 3.159-14.695 8.291-28.228 12.768 27.007 37.602 55.379 113.251-37.084 214.333-23.292 25.463-46.606 48.634-67.61 70.868 1.768.038 3.539.061 5.316.061 49.961 0 96.42-14.968 135.164-40.645 14.886-20.853 27.023-41.136 36.353-60.776 38.959-82.017 23.996-140.963 4.582-175.971z" fill="#dc2624"></path><path d="m427.517 410.578c3.467-7.298 6.499-14.41 9.147-21.342-54.96 14.005-66.211-22.565-66.211-22.565-.819.353-1.629.681-2.435.999-9.853 22.605-25.703 47.143-49.723 73.402-23.292 25.463-46.606 48.634-67.61 70.868 1.767.038 3.539.061 5.316.061 49.962 0 96.42-14.968 135.164-40.646 14.884-20.854 27.022-41.136 36.352-60.777z" fill="#b90400"></path><path d="m339.184 231.208c-.977.224-1.74.923-2.034 1.881-.295.965-.057 1.979.637 2.714 5.406 5.73 18.211 23.166 20.346 61.227.031.551-.334.847-.663.98-.163.054-.723.183-1.097-.39-7.067-10.842-22.94-29.473-49.837-32.422-.432-.047-.85.003-1.234.138-.623.22-1.153.666-1.492 1.286-.546.998-.442 2.167.271 3.049 4.215 5.222 11.651 16.786 14.099 35.563.048.371-.101.615-.247.771 2.981 14.83-5.121 35.398-10.812 47.381-13.46 28.334-45.206 76.326-120.013 144.056-1.306 1.183-2.594 2.374-3.87 3.571 21.977 6.826 45.283 10.622 69.429 10.945 21.008-22.239 44.329-45.416 67.628-70.887 92.902-101.561 63.819-177.454 36.699-214.872-5.299 1.815-11.239 3.542-17.81 5.009z" fill="#f66"></path><path d="m320.294 441.071c24.373-26.645 40.339-51.52 50.158-74.401-40.773 17.56-65.173-9.519-65.173-9.519-14.429 28.734-46.58 75.472-118.172 140.291-1.306 1.183-2.594 2.374-3.87 3.571 21.977 6.826 45.283 10.622 69.428 10.945 21.009-22.239 44.33-45.416 67.629-70.887z" fill="#ff4848"></path><path d="m383.437 297.962c-36.289 30.516-65.504 8.044-65.504 8.044 2.981 14.83-5.121 35.398-10.812 47.381-.578 1.218-1.193 2.474-1.841 3.765.001.002 21.015 33.913 65.173 9.519 10.939-25.491 14.236-48.499 12.984-68.709z" fill="#fc7e7e"></path><path d="m272.616 407.453h-.002c-11.053 14.24-24.851 30.276-42.086 48.114v.001s11.699 28.955 48.885 28.57c13.314-13.741 27.101-28.002 40.881-43.067 3.285-3.591 6.4-7.146 9.385-10.672-40.849 3.853-57.063-22.946-57.063-22.946z" fill="#f66"></path><path d="m333.698 196.624c30.601-19.62 36.728-49.557 37.953-60.434.178-1.578-1.578-2.634-2.89-1.738-7.692 5.255-29.296 17.272-65.084 16.447-32.566-.75-57.704 9.202-69.478 14.991-.511 6.908-1.677 14.493-4.052 21.659-.354 1.068-.017 2.213.858 2.916.864.692 2.04.772 2.991.204 7.926-4.734 24.392-12.435 45.619-10.84 20.609 1.549 34.71-4 41.281-7.448.51-.265.883.055.985.159.104.108.421.498.13 1.012-5.229 9.244-17.65 25.632-42.099 31.5-1.146.283-1.938 1.221-2.008 2.405-.07 1.19.604 2.225 1.718 2.637 9.007 3.334 25.821 12.619 37.233 37.348.238.516-.092.875-.199.973-.107.097-.494.395-.987.111-5.656-3.255-17.121-8.917-30.359-10.275-15.96-1.638-29.821 3.26-41.2 14.553-.749.743-.988 1.817-.626 2.803.361.984 1.238 1.646 2.287 1.728 5.735.443 16.786 2.588 26.35 11.983.366.359.249.784.204.906-.044.119-.226.513-.727.55-7.376.543-26.381 2.73-43.503 11.27-.916.457-1.476 1.379-1.459 2.406.017 1.028.606 1.932 1.537 2.359 3.675 1.688 9.244 4.624 14.902 9.027.419.326.332.774.295.903-.036.128-.195.549-.716.608-5.777.634-16.91 2.162-26.557 5.274-5.531 1.798-10.559 5.109-14.524 9.607-.82.93-1.811 1.972-2.98 3.089.274.153.545.311.832.449 28.867 13.809 43.009.394 53.806-.791 7.113-.78 13.885 1.874 17.677 3.776 1.381.692 2.934-.502 2.656-2.021-1.223-6.686-4.167-10.957-6.222-13.235-.911-1.009-.467-2.63.835-3.024 23.831-7.218 41.09 1.724 48.013 6.442 1.325.903 3.09-.203 2.883-1.793-2.476-18.995-10.01-30.709-14.291-36.012-1.04-1.288.011-3.193 1.657-3.013 26.819 2.94 42.568 21.873 49.181 32.018 1.045 1.603 3.52.779 3.413-1.131-2.15-38.314-15.054-55.927-20.59-61.794-.994-1.053-.475-2.783.938-3.099 22.2-4.958 37.287-12.811 44.696-17.349 1.604-.982.886-3.446-.995-3.44-32.81.11-45.536-8.05-49.609-11.739-.904-.821-.801-2.279.225-2.937z" fill="#ff4848"></path><path d="m268.177 300.469c23.831-7.217 41.09 1.724 48.013 6.442 1.325.903 3.09-.203 2.883-1.793-2.476-18.995-10.01-30.708-14.291-36.012-38.509-10.792-19.472-30.856-19.472-30.856-15.96-1.638-29.821 3.26-41.2 14.553-.749.743-.989 1.817-.626 2.803.361.985 1.238 1.646 2.287 1.728 5.735.443 16.786 2.588 26.349 11.983.366.359.249.784.204.906-.044.119-.226.513-.727.55-7.376.543-26.381 2.73-43.503 11.27-.916.457-1.476 1.379-1.459 2.406.017 1.028.606 1.932 1.537 2.359 3.675 1.688 9.244 4.624 14.902 9.027.419.326.332.774.295.903-.036.128-.195.549-.716.607-5.777.634-16.91 2.162-26.557 5.274-5.531 1.798-10.559 5.109-14.524 9.607-.819.93-1.811 1.972-2.98 3.089.274.153.545.311.832.449 28.867 13.809 43.009.394 53.806-.791 7.113-.78 13.885 1.874 17.677 3.776 1.381.692 2.934-.502 2.656-2.021-1.223-6.686-4.167-10.958-6.222-13.235-.909-1.01-.465-2.63.836-3.024z" fill="#dc2624"></path><path d="m181.324 9.814c-1.452-1.806-4.294-.056-3.335 2.054 13.546 29.808 23.371 58.327 23.039 67.023-.068 1.768-2.308 2.486-3.409 1.101-13.574-17.082-21.9-15.163-25.547-12.677-1.277.87-1.425 2.689-.301 3.75 5.544 5.236 21.806 22.533 26.065 48.783 5.158 31.797-25.403 81.79-25.403 81.79l17.416 10.853c25.504-43.035 33.515-70.65 31.68-108.84-1.961-40.786-26.394-76.659-40.205-93.837z" fill="#fbcc68"></path><path d="m219.812 139.139c-12.847 8.686-19.455 1.906-22.056-2.308-4.05 30-25.323 64.806-25.323 64.806l17.416 10.853c17.036-28.748 26.258-50.616 29.963-73.351z" fill="#efaa42"></path><path d="m268.335 1.116c-1.014-2.084-4.174-1.01-3.709 1.261 6.574 32.075 9.808 62.065 7.549 70.469-.459 1.709-2.803 1.91-3.568.315-9.433-19.674-17.978-19.656-22.086-18.044-1.438.564-1.987 2.305-1.128 3.589 4.24 6.339 16.246 26.82 14.557 53.359-2.046 32.148-42.963 74.088-42.963 74.088l14.565 14.456c34.439-36.282 48.394-61.422 55.102-99.063 7.164-40.2-8.676-80.61-18.319-100.43z" fill="#fbcc68"></path><path d="m254.562 132.431c-11.59 27.088-37.575 53.721-37.575 53.721l14.565 14.456c22.429-23.63 36.165-42.535 44.874-63.243-12.069 6.305-18.883-.391-21.864-4.934z" fill="#efaa42"></path><path d="m23.387 393.84c-3.661.703-7.199-1.696-7.902-5.358-.185-.96-1.591-9.725 5.672-21.597 8.853-14.471 26.485-27.425 52.406-38.5 54.326-23.212 61.035-46.382 61.097-46.614l-.034.141 13.189 2.891c-.657 2.996-8.172 30.03-68.947 55.997-29.011 12.396-41.133 24.858-46.194 33.131-4.392 7.178-3.938 11.964-3.93 12.007.706 3.672-1.71 7.207-5.357 7.902z" fill="#fbcc68"></path><path d="m147.815 284.803-13.189-2.891.033-.141c-.051.194-4.768 16.461-38.166 35.372 3.431 1.797 7.248 5.38 5.869 12.214 39.335-21.954 44.893-41.998 45.453-44.554z" fill="#efaa42"></path><path d="m280.124 205.927c25.073-6.023 37.674-23.091 42.681-31.949.859-1.519-.79-3.201-2.335-2.391-6.86 3.596-20.653 8.858-40.788 7.344-21.711-1.632-38.553 6.428-46.148 10.964-1.391.831-3.043-.526-2.533-2.063 4.868-14.688 4.785-30.964 4.136-40.526-.127-1.86-2.716-2.249-3.369-.503-11.112 29.727-34.751 43.421-43.854 47.742-1.334.633-2.805-.6-2.402-2.021 2.643-9.307.127-17.606-1.622-21.751-.534-1.265-2.264-1.425-3.04-.291-20.84 30.477-40.553 38.269-76.004 47.441-28.501 7.375-16.941 26.184-10.58 34.002 1.96 2.41 1.995 5.849.131 8.334-15.014 20.019-49.196 15.799-67.312 28.653-8.754 6.211-9.211 13.746-7.066 20.155 3.043 9.089 11.382 15.311 20.91 16.355 8.584.941 20.688.687 32.248-5.035 32.176-15.926 51.301-64.614 85.125-46.185 36.99 20.154-27.445 45.531-44.327 57.241-13.897 9.64-23.136 20.507-28.231 27.52-4.545 6.256-4.759 14.825-.154 21.038 3.971 5.358 9.588 7.912 13.38 9.092 1.961.61 4.003-.811 4.088-2.862.298-7.163 2.652-12.331 4.44-15.27.931-1.53 2.975-1.985 4.452-.973.427.292.854.566 1.276.822 2.246 1.365 5.158-.424 4.825-3.031-1.34-10.479 6.752-24.215 38.326-31.087 26.639-5.798 40.114-17.352 45.844-23.839 3.8-4.302 8.637-7.591 14.098-9.358 9.546-3.088 20.578-4.611 26.433-5.254 1.557-.171 2.111-2.154.875-3.116-5.842-4.546-11.603-7.538-15.084-9.137-1.323-.608-1.357-2.486-.054-3.136 16.847-8.406 35.431-10.611 43.175-11.182 1.5-.111 2.16-1.942 1.087-2.995-9.795-9.622-21.125-11.792-26.918-12.238-1.5-.116-2.151-1.94-1.083-3 25.923-25.724 58.523-11.007 70.476-4.128 1.467.844 3.159-.702 2.45-2.239-11.471-24.859-28.297-34.325-37.74-37.82-1.606-.595-1.477-2.923.188-3.323z" fill="#f66"></path><path d="m131.618 321.283c-7.204 3.969-13.712 7.436-17.642 10.162-13.896 9.64-23.136 20.507-28.231 27.52-4.545 6.257-4.759 14.825-.154 21.038 3.971 5.358 9.588 7.912 13.379 9.092 1.961.61 4.003-.811 4.088-2.862.298-7.163 2.652-12.331 4.44-15.27.931-1.53 2.975-1.985 4.452-.973.426.292.854.566 1.276.822 2.246 1.366 5.159-.424 4.825-3.031-1.097-8.58 4.139-19.341 23.4-26.733-16.541-4.78-9.833-19.765-9.833-19.765z" fill="#ff4848"></path><path d="m73.179 320.389c14.286-7.071 25.999-20.599 37.568-31.845-28.545 3.08-23.833-21.085-23.833-21.085l-.021-.004c-16.946 11.954-44.276 10.438-59.807 21.458-8.754 6.211-9.211 13.746-7.065 20.156 3.043 9.089 11.382 15.311 20.91 16.355 8.584.941 20.688.687 32.248-5.035z" fill="#ff4848"></path><path d="m53.102 312.461c-.392.138-.802.243-1.228.308-3.685.567-7.132-1.962-7.698-5.647-.03-.194-.062-.355-.094-.489-.357.044-.867.148-1.511.372-3.522 1.223-7.369-.641-8.592-4.163-1.22-3.512.63-7.345 4.13-8.581.011-.004.022-.008.032-.011 5.001-1.737 9.548-1.508 13.148.659 2.347 1.414 5.334 4.324 6.231 10.161.501 3.26-1.419 6.333-4.418 7.391zm-8.455-5.845.009-.003z" fill="#dc2624"></path><path d="m146.595 312.625c19.099-11.893 34.271-26.128 11.709-38.421-16.113-8.779-28.891-2.323-41.333 8.563s38.075-7.946 29.626 29.847c0 .003-.001.007-.002.011z" fill="#ff4848"></path><path d="m158.304 274.203c-16.113-8.779-28.891-2.323-41.332 8.563 0 0 20.506-4.279 28.081 8.382.164-10.655 9.553-14.654 14.795-16.053-.5-.298-1.001-.596-1.544-.892z" fill="#dc2624"></path><path d="m144.722 224.799-13.103 7.759c2.95 1.49 5.413 4.146 6.645 7.639.715 2.026.93 4.095.726 6.065.274-.405.534-.825.762-1.272l8.573-16.807c1.171-2.297-1.386-4.697-3.603-3.384z" fill="#f0eceb"></path><path d="m53.591 287.681c-.502-.4-12.294-9.966-12.195-23.956.065-9.165 5.016-17.622 14.716-25.136 17.313-13.41 17.702-28.362 18.079-42.822.417-15.991.887-34.108 28.222-40.708 3.625-.873 7.271 1.356 8.145 4.98s-1.357 7.265-4.98 8.146c-17.271 4.166-17.478 12.108-17.89 27.934-.394 15.115-.933 35.813-23.308 53.145-6.258 4.848-9.448 9.746-9.483 14.557-.051 7.263 7.04 13.247 7.112 13.304 2.915 2.324 3.393 6.572 1.069 9.487-2.308 2.897-6.553 3.408-9.487 1.069z" fill="#fbcc68"></path><path d="m64.38 249.264c6.52-5.05 11.176-10.387 14.524-15.788-7.766 1.076-10.242-4.074-11.018-7.825-2.62 4.422-6.374 8.755-11.774 12.939-9.7 7.513-14.651 15.971-14.716 25.136-.099 13.99 11.693 23.556 12.195 23.956 2.933 2.339 7.178 1.828 9.487-1.069 2.325-2.915 1.846-7.162-1.069-9.487-.072-.057-7.163-6.041-7.112-13.304.035-4.813 3.225-9.71 9.483-14.558z" fill="#efaa42"></path><path d="m139.039 246.192c.599-2.211.56-4.618-.26-6.942-1.168-3.311-3.678-5.756-6.701-6.965l-12.858 7.614c-3.059 1.812-2.967 6.27.165 7.954l4.12 2.214c5.465 2.938 12.177 1.163 15.534-3.875z" fill="#dc2624"></path></svg>